<svg xmlns="http://www.w3.org/2000/svg" viewBox="0 0 260 55">
  <!-- Backline - green corporate logo with tagline -->
  <!-- Main wordmark -->
  <text x="130" y="28" text-anchor="middle" font-family="'Helvetica Neue', Helvetica, Arial, sans-serif" font-size="26" font-weight="700" letter-spacing="4" fill="#1B7A2B">BACKLINE</text>
  <!-- Tagline -->
  <text x="130" y="44" text-anchor="middle" font-family="'Helvetica Neue', Helvetica, Arial, sans-serif" font-size="8" font-weight="500" letter-spacing="1.5" fill="#4CAF50">LOGISTICS</text>
  <text x="130" y="44" text-anchor="middle" font-family="'Helvetica Neue', Helvetica, Arial, sans-serif" font-size="8" font-weight="400" fill="#999">
    <tspan dx="-52">LOGISTICS</tspan>
    <tspan dx="4" fill="#999">|</tspan>
    <tspan dx="4" fill="#4CAF50">RECRUITMENT</tspan>
    <tspan dx="4" fill="#999">|</tspan>
    <tspan dx="4" fill="#4CAF50">TRAINING</tspan>
  </text>
  <!-- Small icons above text -->
  <!-- Truck icon -->
  <rect x="72" y="5" width="12" height="7" rx="1" fill="#1B7A2B"/>
  <rect x="65" y="8" width="7" height="5" rx="1" fill="#1B7A2B"/>
  <circle cx="69" cy="14" r="2" fill="#1B7A2B"/>
  <circle cx="80" cy="14" r="2" fill="#1B7A2B"/>
  <!-- People icon -->
  <circle cx="125" cy="7" r="3" fill="#1B7A2B"/>
  <circle cx="118" cy="9" r="2.5" fill="#4CAF50"/>
  <circle cx="132" cy="9" r="2.5" fill="#4CAF50"/>
  <path d="M115 17 Q118 13 121 17" fill="#4CAF50"/>
  <path d="M122 15 Q125 11 128 15" fill="#1B7A2B"/>
  <path d="M129 17 Q132 13 135 17" fill="#4CAF50"/>
  <!-- Presenter icon -->
  <circle cx="175" cy="7" r="3" fill="#1B7A2B"/>
  <rect x="170" y="12" width="10" height="6" rx="1" fill="#1B7A2B"/>
  <rect x="183" y="5" width="10" height="8" rx="1" fill="none" stroke="#1B7A2B" stroke-width="1.5"/>
  <path d="M185 8 L190 11" stroke="#1B7A2B" stroke-width="1"/>
</svg>
